<svg width="32" height="32" viewBox="0 0 32 32" fill="none" xmlns="http://www.w3.org/2000/svg">
<g id="Icon  2">
<ellipse id="Oval" opacity="0.15" cx="15.8988" cy="15.4877" rx="15.6" ry="14.8315" fill="#36B37E"/>
<path id="Icon" d="M13.8164 20.2138L9.57617 16.2066C9.45768 16.094 9.39844 15.9491 9.39844 15.7721C9.39844 15.5951 9.45768 15.4502 9.57617 15.3376L10.5156 14.4685C10.6341 14.3398 10.7822 14.2754 10.96 14.2754C11.1377 14.2754 11.2943 14.3398 11.4297 14.4685L14.2734 17.1722L20.3672 11.3787C20.5026 11.2499 20.6592 11.1855 20.8369 11.1855C21.0146 11.1855 21.1627 11.2499 21.2812 11.3787L22.2207 12.2477C22.3392 12.3603 22.3984 12.5052 22.3984 12.6822C22.3984 12.8592 22.3392 13.0041 22.2207 13.1167L14.7305 20.2138C14.612 20.3425 14.4596 20.4069 14.2734 20.4069C14.0872 20.4069 13.9349 20.3425 13.8164 20.2138Z" fill="#36B37E"/>
</g>
</svg>
