<svg width="100" height="16" viewBox="0 0 100 16" fill="none" xmlns="http://www.w3.org/2000/svg">
<path d="M15.0497 6.37768C14.9503 6.07214 14.6793 5.85582 14.36 5.82693L10.0042 5.43148L8.28275 1.40126C8.15565 1.10517 7.86647 0.914062 7.54458 0.914062C7.2227 0.914062 6.9334 1.10517 6.80711 1.40126L5.08567 5.43148L0.729197 5.82693C0.409846 5.8564 0.139423 6.07272 0.0394963 6.37768C-0.0598547 6.68321 0.0318981 7.01833 0.273426 7.23016L3.56605 10.1173L2.59522 14.3932C2.52419 14.7076 2.64622 15.0327 2.90709 15.2213C3.04731 15.3232 3.21205 15.3741 3.37737 15.3741C3.51943 15.3741 3.6616 15.3363 3.78859 15.2603L7.54458 13.0145L11.2999 15.2603C11.5754 15.4249 11.9218 15.4099 12.1821 15.2213C12.4429 15.0327 12.565 14.7076 12.4939 14.3932L11.5231 10.1173L14.8157 7.23016C15.0572 7.01833 15.149 6.6839 15.0497 6.37768V6.37768Z" fill="url(#paint0_linear_388_2396)"/>
<path d="M36.1825 6.37768C36.0831 6.07214 35.8121 5.85582 35.4928 5.82693L31.137 5.43148L29.4156 1.40126C29.2885 1.10517 28.9993 0.914062 28.6774 0.914062C28.3555 0.914062 28.0662 1.10517 27.9399 1.40126L26.2185 5.43148L21.862 5.82693C21.5427 5.8564 21.2722 6.07272 21.1723 6.37768C21.073 6.68321 21.1647 7.01833 21.4062 7.23016L24.6989 10.1173L23.728 14.3932C23.657 14.7076 23.779 15.0327 24.0399 15.2213C24.1801 15.3232 24.3449 15.3741 24.5102 15.3741C24.6522 15.3741 24.7944 15.3363 24.9214 15.2603L28.6774 13.0145L32.4327 15.2603C32.7082 15.4249 33.0546 15.4099 33.3149 15.2213C33.5758 15.0327 33.6978 14.7076 33.6268 14.3932L32.6559 10.1173L35.9486 7.23016C36.19 7.01833 36.2818 6.6839 36.1825 6.37768V6.37768Z" fill="url(#paint1_linear_388_2396)"/>
<path d="M57.3153 6.37768C57.2159 6.07214 56.9449 5.85582 56.6256 5.82693L52.2698 5.43148L50.5484 1.40126C50.4213 1.10517 50.1321 0.914062 49.8102 0.914062C49.4883 0.914062 49.199 1.10517 49.0727 1.40126L47.3513 5.43148L42.9948 5.82693C42.6755 5.8564 42.405 6.07272 42.3051 6.37768C42.2058 6.68321 42.2975 7.01833 42.5391 7.23016L45.8317 10.1173L44.8608 14.3932C44.7898 14.7076 44.9118 15.0327 45.1727 15.2213C45.3129 15.3232 45.4777 15.3741 45.643 15.3741C45.7851 15.3741 45.9272 15.3363 46.0542 15.2603L49.8102 13.0145L53.5655 15.2603C53.841 15.4249 54.1874 15.4099 54.4477 15.2213C54.7086 15.0327 54.8306 14.7076 54.7596 14.3932L53.7887 10.1173L57.0814 7.23016C57.3228 7.01833 57.4146 6.6839 57.3153 6.37768V6.37768Z" fill="url(#paint2_linear_388_2396)"/>
<path d="M78.4481 6.37768C78.3488 6.07214 78.0778 5.85582 77.7584 5.82693L73.4026 5.43148L71.6812 1.40126C71.5541 1.10517 71.2649 0.914062 70.943 0.914062C70.6211 0.914062 70.3318 1.10517 70.2055 1.40126L68.4841 5.43148L64.1276 5.82693C63.8083 5.8564 63.5379 6.07272 63.4379 6.37768C63.3386 6.68321 63.4303 7.01833 63.6719 7.23016L66.9645 10.1173L65.9937 14.3932C65.9226 14.7076 66.0447 15.0327 66.3055 15.2213C66.4457 15.3232 66.6105 15.3741 66.7758 15.3741C66.9179 15.3741 67.06 15.3363 67.187 15.2603L70.943 13.0145L74.6983 15.2603C74.9738 15.4249 75.3202 15.4099 75.5805 15.2213C75.8414 15.0327 75.9634 14.7076 75.8924 14.3932L74.9215 10.1173L78.2142 7.23016C78.4556 7.01833 78.5475 6.6839 78.4481 6.37768V6.37768Z" fill="url(#paint3_linear_388_2396)"/>
<path d="M99.5809 6.37768C99.4816 6.07214 99.2106 5.85582 98.8912 5.82693L94.5354 5.43148L92.814 1.40126C92.6869 1.10517 92.3977 0.914062 92.0758 0.914062C91.7539 0.914062 91.4646 1.10517 91.3384 1.40126L89.6169 5.43148L85.2604 5.82693C84.9411 5.8564 84.6707 6.07272 84.5707 6.37768C84.4714 6.68321 84.5631 7.01833 84.8047 7.23016L88.0973 10.1173L87.1265 14.3932C87.0554 14.7076 87.1775 15.0327 87.4383 15.2213C87.5786 15.3232 87.7433 15.3741 87.9086 15.3741C88.0507 15.3741 88.1929 15.3363 88.3198 15.2603L92.0758 13.0145L95.8311 15.2603C96.1066 15.4249 96.453 15.4099 96.7133 15.2213C96.9742 15.0327 97.0962 14.7076 97.0252 14.3932L96.0544 10.1173L99.347 7.23016C99.5884 7.01833 99.6803 6.6839 99.5809 6.37768V6.37768Z" fill="url(#paint4_linear_388_2396)"/>
<defs>
<linearGradient id="paint0_linear_388_2396" x1="0.223543" y1="1.05866" x2="15.609" y2="1.77928" gradientUnits="userSpaceOnUse">
<stop stop-color="#FFB95B"/>
<stop offset="1" stop-color="#DA8412"/>
</linearGradient>
<linearGradient id="paint1_linear_388_2396" x1="21.3564" y1="1.05866" x2="36.7419" y2="1.77928" gradientUnits="userSpaceOnUse">
<stop stop-color="#FFB95B"/>
<stop offset="1" stop-color="#DA8412"/>
</linearGradient>
<linearGradient id="paint2_linear_388_2396" x1="42.4892" y1="1.05866" x2="57.8747" y2="1.77928" gradientUnits="userSpaceOnUse">
<stop stop-color="#FFB95B"/>
<stop offset="1" stop-color="#DA8412"/>
</linearGradient>
<linearGradient id="paint3_linear_388_2396" x1="63.622" y1="1.05866" x2="79.0075" y2="1.77928" gradientUnits="userSpaceOnUse">
<stop stop-color="#FFB95B"/>
<stop offset="1" stop-color="#DA8412"/>
</linearGradient>
<linearGradient id="paint4_linear_388_2396" x1="84.7548" y1="1.05866" x2="100.14" y2="1.77928" gradientUnits="userSpaceOnUse">
<stop stop-color="#FFB95B"/>
<stop offset="1" stop-color="#DA8412"/>
</linearGradient>
</defs>
</svg>
