<svg width="23" height="23" viewBox="0 0 23 23" fill="none" xmlns="http://www.w3.org/2000/svg">
<path d="M2.88867 17.2563V11.7563C2.88867 9.56831 3.75787 7.46989 5.30504 5.92272C6.85222 4.37554 8.95064 3.50635 11.1387 3.50635C13.3267 3.50635 15.4251 4.37554 16.9723 5.92272C18.5195 7.46989 19.3887 9.56831 19.3887 11.7563V17.2563" stroke="black" stroke-linecap="round" stroke-linejoin="round"/>
<path d="M19.3887 18.1731C19.3887 18.6593 19.1955 19.1256 18.8517 19.4694C18.5079 19.8132 18.0416 20.0064 17.5553 20.0064H16.6387C16.1524 20.0064 15.6861 19.8132 15.3423 19.4694C14.9985 19.1256 14.8053 18.6593 14.8053 18.1731V15.4231C14.8053 14.9368 14.9985 14.4705 15.3423 14.1267C15.6861 13.7829 16.1524 13.5897 16.6387 13.5897H19.3887V18.1731ZM2.88867 18.1731C2.88867 18.6593 3.08183 19.1256 3.42564 19.4694C3.76946 19.8132 4.23577 20.0064 4.72201 20.0064H5.63867C6.1249 20.0064 6.59122 19.8132 6.93503 19.4694C7.27885 19.1256 7.47201 18.6593 7.47201 18.1731V15.4231C7.47201 14.9368 7.27885 14.4705 6.93503 14.1267C6.59122 13.7829 6.1249 13.5897 5.63867 13.5897H2.88867V18.1731Z" stroke="black" stroke-linecap="round" stroke-linejoin="round"/>
</svg>
